<svg xmlns="http://www.w3.org/2000/svg" xmlns:xlink="http://www.w3.org/1999/xlink" width="1396" zoomAndPan="magnify" viewBox="0 0 1047 691.499984" height="922" preserveAspectRatio="xMidYMid meet" version="1.0"><defs><filter x="0%" y="0%" width="100%" height="100%" id="5b5e16d0f6"><feColorMatrix values="0 0 0 0 1 0 0 0 0 1 0 0 0 0 1 0 0 0 1 0" color-interpolation-filters="sRGB"/></filter><clipPath id="32c23b3477"><path d="M 0.378906 0 L 909 0 L 909 691 L 0.378906 691 Z M 0.378906 0 " clip-rule="nonzero"/></clipPath><mask id="792263c52e"><g filter="url(#5b5e16d0f6)"><rect x="-104.7" width="1256.4" fill="#000000" y="-69.149998" height="829.799981" fill-opacity="0.098"/></g></mask><clipPath id="7ebc1a28b3"><path d="M 69 63 L 824 63 L 824 670 L 69 670 Z M 69 63 " clip-rule="nonzero"/></clipPath><clipPath id="eb953ec840"><path d="M -68.910156 393.273438 L 530.011719 -137.734375 L 915.835938 297.4375 L 316.914062 828.445312 Z M -68.910156 393.273438 " clip-rule="nonzero"/></clipPath><clipPath id="3419a87862"><path d="M 529.960938 -137.6875 L -68.960938 393.320312 L 316.863281 828.492188 L 915.785156 297.484375 Z M 529.960938 -137.6875 " clip-rule="nonzero"/></clipPath><clipPath id="77e851fa0c"><rect x="0" width="909" y="0" height="691"/></clipPath><clipPath id="658eae28ba"><path d="M 127 0 L 1046.621094 0 L 1046.621094 691 L 127 691 Z M 127 0 " clip-rule="nonzero"/></clipPath><mask id="4994fef20a"><g filter="url(#5b5e16d0f6)"><rect x="-104.7" width="1256.4" fill="#000000" y="-69.149998" height="829.799981" fill-opacity="0.098"/></g></mask><clipPath id="79e85c40cd"><path d="M 117 44 L 846 44 L 846 645 L 117 645 Z M 117 44 " clip-rule="nonzero"/></clipPath><clipPath id="1c7b1d139b"><path d="M -6.222656 164.65625 L 743.332031 -116.132812 L 947.351562 428.484375 L 197.796875 709.273438 Z M -6.222656 164.65625 " clip-rule="nonzero"/></clipPath><clipPath id="40be56d56e"><path d="M -6.222656 164.65625 L 743.332031 -116.132812 L 947.351562 428.484375 L 197.796875 709.273438 Z M -6.222656 164.65625 " clip-rule="nonzero"/></clipPath><clipPath id="6d5a31d5b4"><rect x="0" width="920" y="0" height="691"/></clipPath></defs><g clip-path="url(#32c23b3477)"><g mask="url(#792263c52e)"><g transform="matrix(1, 0, 0, 1, 0, 0)"><g clip-path="url(#77e851fa0c)"><g clip-path="url(#7ebc1a28b3)"><g clip-path="url(#eb953ec840)"><g clip-path="url(#3419a87862)"><path fill="#ff6161" d="M 569.722656 566.984375 C 596.960938 542.429688 624.667969 512.867188 653.667969 489.003906 C 684.515625 463.714844 721.847656 448.367188 755.277344 427.058594 C 813.25 388.445312 829.914062 312.1875 821.183594 246.832031 C 815.753906 199.851562 791.171875 156.953125 756.066406 125.46875 C 744.929688 114.40625 730.972656 108.382812 717.355469 101.796875 C 699.148438 92.980469 680.503906 84.996094 660.414062 81.363281 C 595.980469 71.269531 531.117188 86.5625 466.578125 88.433594 C 460.40625 88.78125 454.582031 87.269531 448.835938 85.074219 C 416.171875 71.527344 381.195312 56.222656 345.390625 67.007812 C 283.675781 80.71875 235.316406 135.421875 227.878906 198.230469 C 226.1875 214.066406 227.15625 229.988281 225.183594 245.753906 C 220.578125 292.457031 220.890625 344.078125 191.792969 383.433594 C 156.769531 420.320312 112.089844 409.640625 82.789062 458.476562 C 52.628906 503.695312 79.84375 561.210938 113.886719 596.128906 C 146.066406 626.542969 187.179688 646.191406 229.46875 658.171875 C 360.171875 689.613281 471.226562 657.546875 569.722656 566.984375 Z M 569.722656 566.984375 " fill-opacity="1" fill-rule="nonzero"/></g></g></g></g></g></g></g><g clip-path="url(#658eae28ba)"><g mask="url(#4994fef20a)"><g transform="matrix(1, 0, 0, 1, 127, 0)"><g clip-path="url(#6d5a31d5b4)"><g clip-path="url(#79e85c40cd)"><g clip-path="url(#1c7b1d139b)"><g clip-path="url(#40be56d56e)"><path fill="#0c3461" d="M 597.914062 529.566406 C 563.46875 542.144531 524.375 552.800781 489.714844 567.261719 C 452.929688 582.6875 421.898438 608.496094 387.421875 628.070312 C 326.167969 661.226562 250.976562 640.269531 197.304688 601.96875 C 158.328125 575.183594 131.921875 533.386719 120.523438 487.625 C 115.960938 472.609375 117.167969 457.453125 117.722656 442.339844 C 118.449219 422.121094 120.117188 401.910156 126.308594 382.457031 C 147.542969 320.785156 191.414062 270.621094 223.269531 214.460938 C 226.464844 209.171875 227.855469 203.316406 228.605469 197.210938 C 231.921875 162.003906 234.761719 123.933594 261.046875 97.335938 C 302.046875 49.214844 373.023438 32.078125 432.007812 54.898438 C 446.796875 60.8125 460.414062 69.121094 475.265625 74.753906 C 518.699219 92.542969 564.167969 116.976562 612.566406 109.675781 C 661.554688 95.988281 673.027344 51.503906 729.898438 48.46875 C 783.972656 42.972656 822.066406 93.941406 836.992188 140.367188 C 848.8125 183.039062 846.9375 228.566406 837.734375 271.546875 C 804.351562 401.765625 724.042969 484.902344 597.914062 529.566406 Z M 597.914062 529.566406 " fill-opacity="1" fill-rule="nonzero"/></g></g></g></g></g></g></g></svg>